<svg width="33" height="33" viewBox="0 0 33 33" fill="none" xmlns="http://www.w3.org/2000/svg">
<g clip-path="url(#clip0_0_491)">
<circle cx="16.5" cy="16.5" r="16" stroke="white"/>
<path d="M20.4655 14.846C20.4655 15.2007 20.3955 15.5413 20.2555 15.868C20.1155 16.1947 19.9335 16.512 19.7095 16.82C19.4855 17.1187 19.2335 17.408 18.9535 17.688C18.6735 17.968 18.3982 18.234 18.1275 18.486C17.9875 18.6167 17.8335 18.766 17.6655 18.934C17.5068 19.0927 17.3528 19.256 17.2035 19.424C17.0542 19.592 16.9188 19.7507 16.7975 19.9C16.6855 20.04 16.6155 20.1567 16.5875 20.25H20.7595V22H14.2915C14.2728 21.8973 14.2635 21.7667 14.2635 21.608C14.2635 21.4493 14.2635 21.3373 14.2635 21.272C14.2635 20.824 14.3335 20.4133 14.4735 20.04C14.6228 19.6667 14.8142 19.3213 15.0475 19.004C15.2808 18.6773 15.5422 18.374 15.8315 18.094C16.1302 17.814 16.4242 17.534 16.7135 17.254C16.9375 17.0393 17.1475 16.8387 17.3435 16.652C17.5395 16.456 17.7122 16.2693 17.8615 16.092C18.0108 15.9053 18.1275 15.7233 18.2115 15.546C18.2955 15.3593 18.3375 15.1727 18.3375 14.986C18.3375 14.5753 18.2208 14.286 17.9875 14.118C17.7542 13.95 17.4648 13.866 17.1195 13.866C16.8675 13.866 16.6295 13.908 16.4055 13.992C16.1908 14.0667 15.9902 14.16 15.8035 14.272C15.6262 14.3747 15.4722 14.482 15.3415 14.594C15.2108 14.6967 15.1128 14.7807 15.0475 14.846L14.0115 13.39C14.4222 13.0073 14.8982 12.6947 15.4395 12.452C15.9902 12.2 16.5782 12.074 17.2035 12.074C17.7728 12.074 18.2628 12.1393 18.6735 12.27C19.0842 12.4007 19.4202 12.5873 19.6815 12.83C19.9522 13.0633 20.1482 13.3527 20.2695 13.698C20.4002 14.034 20.4655 14.4167 20.4655 14.846Z" fill="white"/>
</g>
<defs>
<clipPath id="clip0_0_491">
<rect width="33" height="33" fill="white"/>
</clipPath>
</defs>
</svg>
