<svg width="33" height="33" viewBox="0 0 33 33" fill="none" xmlns="http://www.w3.org/2000/svg">
<g clip-path="url(#clip0_0_494)">
<circle cx="16.5" cy="16.5" r="16" stroke="white"/>
<path d="M16.7135 22.21C16.4615 22.21 16.1955 22.1913 15.9155 22.154C15.6355 22.126 15.3648 22.084 15.1035 22.028C14.8422 21.972 14.6042 21.9113 14.3895 21.846C14.1748 21.7807 14.0068 21.72 13.8855 21.664L14.2915 19.928C14.5342 20.0307 14.8422 20.1427 15.2155 20.264C15.5982 20.376 16.0695 20.432 16.6295 20.432C17.2735 20.432 17.7448 20.3107 18.0435 20.068C18.3422 19.8253 18.4915 19.4987 18.4915 19.088C18.4915 18.836 18.4355 18.626 18.3235 18.458C18.2208 18.2807 18.0762 18.1407 17.8895 18.038C17.7028 17.926 17.4788 17.8513 17.2175 17.814C16.9655 17.7673 16.6948 17.744 16.4055 17.744H15.5935V16.064H16.5175C16.7228 16.064 16.9188 16.0453 17.1055 16.008C17.3015 15.9707 17.4742 15.91 17.6235 15.826C17.7728 15.7327 17.8895 15.6113 17.9735 15.462C18.0668 15.3033 18.1135 15.1073 18.1135 14.874C18.1135 14.6967 18.0762 14.5427 18.0015 14.412C17.9268 14.2813 17.8288 14.174 17.7075 14.09C17.5955 14.006 17.4602 13.9453 17.3015 13.908C17.1522 13.8613 16.9982 13.838 16.8395 13.838C16.4382 13.838 16.0648 13.8987 15.7195 14.02C15.3835 14.1413 15.0755 14.2907 14.7955 14.468L14.0535 12.942C14.2028 12.8487 14.3755 12.7507 14.5715 12.648C14.7768 12.5453 15.0008 12.452 15.2435 12.368C15.4862 12.284 15.7428 12.214 16.0135 12.158C16.2935 12.102 16.5875 12.074 16.8955 12.074C17.4648 12.074 17.9548 12.144 18.3655 12.284C18.7855 12.4147 19.1308 12.606 19.4015 12.858C19.6722 13.1007 19.8728 13.39 20.0035 13.726C20.1342 14.0527 20.1995 14.412 20.1995 14.804C20.1995 15.1867 20.0922 15.56 19.8775 15.924C19.6628 16.2787 19.3735 16.5493 19.0095 16.736C19.5135 16.9413 19.9008 17.2493 20.1715 17.66C20.4515 18.0613 20.5915 18.5467 20.5915 19.116C20.5915 19.564 20.5168 19.9793 20.3675 20.362C20.2182 20.7353 19.9848 21.062 19.6675 21.342C19.3502 21.6127 18.9442 21.8273 18.4495 21.986C17.9642 22.1353 17.3855 22.21 16.7135 22.21Z" fill="white"/>
</g>
<defs>
<clipPath id="clip0_0_494">
<rect width="33" height="33" fill="white"/>
</clipPath>
</defs>
</svg>
